<?xml version="1.0" encoding="UTF-8" standalone="no"?>
<!DOCTYPE svg PUBLIC "-//W3C//DTD SVG 1.1//EN"
 "http://www.w3.org/Graphics/SVG/1.1/DTD/svg11.dtd">
<!-- Generated by graphviz version 15.0.0 (20260523.1842)
 -->
<!-- Title: infra Pages: 1 -->
<svg width="458pt" height="98pt"
 viewBox="0.00 0.00 458.00 98.00" xmlns="http://www.w3.org/2000/svg" xmlns:xlink="http://www.w3.org/1999/xlink">
<g id="graph0" class="graph" transform="scale(1 1) rotate(0) translate(4 94)">
<title>infra</title>
<polygon fill="white" stroke="none" points="-4,4 -4,-94 454.23,-94 454.23,4 -4,4"/>
<!-- Client -->
<g id="node1" class="node">
<title>Client</title>
<ellipse fill="none" stroke="black" cx="33.44" cy="-45" rx="33.44" ry="18"/>
<text xml:space="preserve" text-anchor="middle" x="33.44" y="-39.95" font-family="Times,serif" font-size="14.00">Client</text>
</g>
<!-- LoadBalancer -->
<g id="node2" class="node">
<title>LoadBalancer</title>
<ellipse fill="none" stroke="black" cx="165.49" cy="-45" rx="62.61" ry="18"/>
<text xml:space="preserve" text-anchor="middle" x="165.49" y="-39.95" font-family="Times,serif" font-size="14.00">LoadBalancer</text>
</g>
<!-- Client&#45;&gt;LoadBalancer -->
<g id="edge1" class="edge">
<title>Client&#45;&gt;LoadBalancer</title>
<path fill="none" stroke="black" d="M67.26,-45C74.65,-45 82.79,-45 91.12,-45"/>
<polygon fill="black" stroke="black" points="91.03,-48.5 101.03,-45 91.03,-41.5 91.03,-48.5"/>
</g>
<!-- API1 -->
<g id="node3" class="node">
<title>API1</title>
<ellipse fill="none" stroke="black" cx="294.47" cy="-72" rx="30.37" ry="18"/>
<text xml:space="preserve" text-anchor="middle" x="294.47" y="-66.95" font-family="Times,serif" font-size="14.00">API1</text>
</g>
<!-- LoadBalancer&#45;&gt;API1 -->
<g id="edge2" class="edge">
<title>LoadBalancer&#45;&gt;API1</title>
<path fill="none" stroke="black" d="M216.67,-55.67C229.28,-58.35 242.62,-61.19 254.58,-63.73"/>
<polygon fill="black" stroke="black" points="253.57,-67.1 264.08,-65.75 255.03,-60.25 253.57,-67.1"/>
</g>
<!-- API2 -->
<g id="node4" class="node">
<title>API2</title>
<ellipse fill="none" stroke="black" cx="294.47" cy="-18" rx="30.37" ry="18"/>
<text xml:space="preserve" text-anchor="middle" x="294.47" y="-12.95" font-family="Times,serif" font-size="14.00">API2</text>
</g>
<!-- LoadBalancer&#45;&gt;API2 -->
<g id="edge3" class="edge">
<title>LoadBalancer&#45;&gt;API2</title>
<path fill="none" stroke="black" d="M216.67,-34.33C229.28,-31.65 242.62,-28.81 254.58,-26.27"/>
<polygon fill="black" stroke="black" points="255.03,-29.75 264.08,-24.25 253.57,-22.9 255.03,-29.75"/>
</g>
<!-- Database -->
<g id="node5" class="node">
<title>Database</title>
<ellipse fill="none" stroke="black" cx="405.53" cy="-45" rx="44.7" ry="18"/>
<text xml:space="preserve" text-anchor="middle" x="405.53" y="-39.95" font-family="Times,serif" font-size="14.00">Database</text>
</g>
<!-- API1&#45;&gt;Database -->
<g id="edge4" class="edge">
<title>API1&#45;&gt;Database</title>
<path fill="none" stroke="black" d="M322.99,-65.19C332.93,-62.73 344.47,-59.87 355.68,-57.09"/>
<polygon fill="black" stroke="black" points="356.39,-60.52 365.25,-54.72 354.7,-53.73 356.39,-60.52"/>
</g>
<!-- API2&#45;&gt;Database -->
<g id="edge5" class="edge">
<title>API2&#45;&gt;Database</title>
<path fill="none" stroke="black" d="M322.99,-24.81C332.93,-27.27 344.47,-30.13 355.68,-32.91"/>
<polygon fill="black" stroke="black" points="354.7,-36.27 365.25,-35.28 356.39,-29.48 354.7,-36.27"/>
</g>
</g>
</svg>
