<?xml version="1.0" encoding="UTF-8" standalone="no"?>
<!DOCTYPE svg PUBLIC "-//W3C//DTD SVG 1.1//EN"
 "http://www.w3.org/Graphics/SVG/1.1/DTD/svg11.dtd">
<!-- Generated by graphviz version 15.0.0 (20260523.1842)
 -->
<!-- Title: infra Pages: 1 -->
<svg width="618pt" height="152pt"
 viewBox="0.00 0.00 618.00 152.00" xmlns="http://www.w3.org/2000/svg" xmlns:xlink="http://www.w3.org/1999/xlink">
<g id="graph0" class="graph" transform="scale(1 1) rotate(0) translate(4 148)">
<title>infra</title>
<polygon fill="white" stroke="none" points="-4,4 -4,-148 614.43,-148 614.43,4 -4,4"/>
<!-- Client -->
<g id="node1" class="node">
<title>Client</title>
<ellipse fill="none" stroke="black" cx="33.44" cy="-72" rx="33.44" ry="18"/>
<text xml:space="preserve" text-anchor="middle" x="33.44" y="-66.95" font-family="Times,serif" font-size="14.00">Client</text>
</g>
<!-- LoadBalancer -->
<g id="node2" class="node">
<title>LoadBalancer</title>
<ellipse fill="none" stroke="black" cx="165.49" cy="-72" rx="62.61" ry="18"/>
<text xml:space="preserve" text-anchor="middle" x="165.49" y="-66.95" font-family="Times,serif" font-size="14.00">LoadBalancer</text>
</g>
<!-- Client&#45;&gt;LoadBalancer -->
<g id="edge1" class="edge">
<title>Client&#45;&gt;LoadBalancer</title>
<path fill="none" stroke="black" d="M67.26,-72C74.65,-72 82.79,-72 91.12,-72"/>
<polygon fill="black" stroke="black" points="91.03,-75.5 101.03,-72 91.03,-68.5 91.03,-75.5"/>
</g>
<!-- API1 -->
<g id="node3" class="node">
<title>API1</title>
<ellipse fill="none" stroke="black" cx="294.47" cy="-99" rx="30.37" ry="18"/>
<text xml:space="preserve" text-anchor="middle" x="294.47" y="-93.95" font-family="Times,serif" font-size="14.00">API1</text>
</g>
<!-- LoadBalancer&#45;&gt;API1 -->
<g id="edge2" class="edge">
<title>LoadBalancer&#45;&gt;API1</title>
<path fill="none" stroke="black" d="M216.67,-82.67C229.28,-85.35 242.62,-88.19 254.58,-90.73"/>
<polygon fill="black" stroke="black" points="253.57,-94.1 264.08,-92.75 255.03,-87.25 253.57,-94.1"/>
</g>
<!-- API2 -->
<g id="node4" class="node">
<title>API2</title>
<ellipse fill="none" stroke="black" cx="294.47" cy="-45" rx="30.37" ry="18"/>
<text xml:space="preserve" text-anchor="middle" x="294.47" y="-39.95" font-family="Times,serif" font-size="14.00">API2</text>
</g>
<!-- LoadBalancer&#45;&gt;API2 -->
<g id="edge3" class="edge">
<title>LoadBalancer&#45;&gt;API2</title>
<path fill="none" stroke="black" d="M216.67,-61.33C229.28,-58.65 242.62,-55.81 254.58,-53.27"/>
<polygon fill="black" stroke="black" points="255.03,-56.75 264.08,-51.25 253.57,-49.9 255.03,-56.75"/>
</g>
<!-- Database -->
<g id="node5" class="node">
<title>Database</title>
<ellipse fill="none" stroke="black" cx="428.56" cy="-126" rx="44.7" ry="18"/>
<text xml:space="preserve" text-anchor="middle" x="428.56" y="-120.95" font-family="Times,serif" font-size="14.00">Database</text>
</g>
<!-- API1&#45;&gt;Database -->
<g id="edge4" class="edge">
<title>API1&#45;&gt;Database</title>
<path fill="none" stroke="black" d="M323.48,-104.73C339.03,-107.91 358.86,-111.96 377.02,-115.67"/>
<polygon fill="black" stroke="black" points="376.08,-119.05 386.58,-117.62 377.48,-112.19 376.08,-119.05"/>
</g>
<!-- Cache -->
<g id="node6" class="node">
<title>Cache</title>
<ellipse fill="none" stroke="black" cx="428.56" cy="-72" rx="33.95" ry="18"/>
<text xml:space="preserve" text-anchor="middle" x="428.56" y="-66.95" font-family="Times,serif" font-size="14.00">Cache</text>
</g>
<!-- API1&#45;&gt;Cache -->
<g id="edge6" class="edge">
<title>API1&#45;&gt;Cache</title>
<path fill="none" stroke="black" d="M323.48,-93.27C341.42,-89.61 365.03,-84.78 385.23,-80.65"/>
<polygon fill="black" stroke="black" points="385.77,-84.11 394.87,-78.68 384.37,-77.26 385.77,-84.11"/>
</g>
<!-- MessageQueue -->
<g id="node8" class="node">
<title>MessageQueue</title>
<ellipse fill="none" stroke="black" cx="428.56" cy="-18" rx="67.73" ry="18"/>
<text xml:space="preserve" text-anchor="middle" x="428.56" y="-12.95" font-family="Times,serif" font-size="14.00">MessageQueue</text>
</g>
<!-- API1&#45;&gt;MessageQueue -->
<g id="edge9" class="edge">
<title>API1&#45;&gt;MessageQueue</title>
<path fill="none" stroke="black" d="M312.18,-84.2C328,-70.37 350.78,-50.99 360.83,-45 365.67,-42.11 370.88,-39.41 376.17,-36.91"/>
<polygon fill="black" stroke="black" points="377.29,-40.24 385,-32.97 374.44,-33.85 377.29,-40.24"/>
</g>
<!-- API2&#45;&gt;Database -->
<g id="edge5" class="edge">
<title>API2&#45;&gt;Database</title>
<path fill="none" stroke="black" d="M312.18,-59.8C328,-73.63 350.78,-93.01 360.83,-99 367.69,-103.09 375.28,-106.82 382.82,-110.11"/>
<polygon fill="black" stroke="black" points="381.36,-113.3 391.94,-113.89 384.04,-106.83 381.36,-113.3"/>
</g>
<!-- API2&#45;&gt;Cache -->
<g id="edge7" class="edge">
<title>API2&#45;&gt;Cache</title>
<path fill="none" stroke="black" d="M323.48,-50.73C341.42,-54.39 365.03,-59.22 385.23,-63.35"/>
<polygon fill="black" stroke="black" points="384.37,-66.74 394.87,-65.32 385.77,-59.89 384.37,-66.74"/>
</g>
<!-- API2&#45;&gt;MessageQueue -->
<g id="edge10" class="edge">
<title>API2&#45;&gt;MessageQueue</title>
<path fill="none" stroke="black" d="M323.48,-39.27C335.01,-36.92 348.89,-34.08 362.71,-31.26"/>
<polygon fill="black" stroke="black" points="363.14,-34.74 372.24,-29.31 361.74,-27.88 363.14,-34.74"/>
</g>
<!-- Redis -->
<g id="node7" class="node">
<title>Redis</title>
<ellipse fill="none" stroke="black" cx="571.36" cy="-72" rx="31.9" ry="18"/>
<text xml:space="preserve" text-anchor="middle" x="571.36" y="-66.95" font-family="Times,serif" font-size="14.00">Redis</text>
</g>
<!-- Cache&#45;&gt;Redis -->
<g id="edge8" class="edge">
<title>Cache&#45;&gt;Redis</title>
<path fill="none" stroke="black" d="M462.93,-72C482.33,-72 506.96,-72 527.75,-72"/>
<polygon fill="black" stroke="black" points="527.65,-75.5 537.65,-72 527.65,-68.5 527.65,-75.5"/>
</g>
<!-- Worker -->
<g id="node9" class="node">
<title>Worker</title>
<ellipse fill="none" stroke="black" cx="571.36" cy="-18" rx="39.07" ry="18"/>
<text xml:space="preserve" text-anchor="middle" x="571.36" y="-12.95" font-family="Times,serif" font-size="14.00">Worker</text>
</g>
<!-- MessageQueue&#45;&gt;Worker -->
<g id="edge11" class="edge">
<title>MessageQueue&#45;&gt;Worker</title>
<path fill="none" stroke="black" d="M496.66,-18C504.75,-18 512.9,-18 520.68,-18"/>
<polygon fill="black" stroke="black" points="520.63,-21.5 530.63,-18 520.63,-14.5 520.63,-21.5"/>
</g>
</g>
</svg>
