<?xml version="1.0" encoding="UTF-8" standalone="no"?>
<!DOCTYPE svg PUBLIC "-//W3C//DTD SVG 1.1//EN"
 "http://www.w3.org/Graphics/SVG/1.1/DTD/svg11.dtd">
<!-- Generated by graphviz version 2.43.0 (0)
 -->
<!-- Title: infra Pages: 1 -->
<svg width="514pt" height="98pt"
 viewBox="0.00 0.00 513.76 98.00" xmlns="http://www.w3.org/2000/svg" xmlns:xlink="http://www.w3.org/1999/xlink">
<g id="graph0" class="graph" transform="scale(1 1) rotate(0) translate(4 94)">
<title>infra</title>
<polygon fill="white" stroke="transparent" points="-4,4 -4,-94 509.76,-94 509.76,4 -4,4"/>
<!-- Client -->
<g id="node1" class="node">
<title>Client</title>
<ellipse fill="none" stroke="black" cx="38.35" cy="-45" rx="38.19" ry="18"/>
<text text-anchor="middle" x="38.35" y="-41.3" font-family="Times,serif" font-size="14.00">Client</text>
</g>
<!-- LoadBalancer -->
<g id="node2" class="node">
<title>LoadBalancer</title>
<ellipse fill="none" stroke="black" cx="186.79" cy="-45" rx="74.19" ry="18"/>
<text text-anchor="middle" x="186.79" y="-41.3" font-family="Times,serif" font-size="14.00">LoadBalancer</text>
</g>
<!-- Client&#45;&gt;LoadBalancer -->
<g id="edge1" class="edge">
<title>Client&#45;&gt;LoadBalancer</title>
<path fill="none" stroke="black" d="M77.06,-45C85,-45 93.68,-45 102.56,-45"/>
<polygon fill="black" stroke="black" points="102.64,-48.5 112.64,-45 102.64,-41.5 102.64,-48.5"/>
</g>
<!-- API1 -->
<g id="node3" class="node">
<title>API1</title>
<ellipse fill="none" stroke="black" cx="329.38" cy="-72" rx="32.49" ry="18"/>
<text text-anchor="middle" x="329.38" y="-68.3" font-family="Times,serif" font-size="14.00">API1</text>
</g>
<!-- LoadBalancer&#45;&gt;API1 -->
<g id="edge2" class="edge">
<title>LoadBalancer&#45;&gt;API1</title>
<path fill="none" stroke="black" d="M245.38,-56.06C259.88,-58.85 275.13,-61.77 288.54,-64.35"/>
<polygon fill="black" stroke="black" points="287.92,-67.79 298.4,-66.24 289.24,-60.92 287.92,-67.79"/>
</g>
<!-- API2 -->
<g id="node4" class="node">
<title>API2</title>
<ellipse fill="none" stroke="black" cx="329.38" cy="-18" rx="32.49" ry="18"/>
<text text-anchor="middle" x="329.38" y="-14.3" font-family="Times,serif" font-size="14.00">API2</text>
</g>
<!-- LoadBalancer&#45;&gt;API2 -->
<g id="edge3" class="edge">
<title>LoadBalancer&#45;&gt;API2</title>
<path fill="none" stroke="black" d="M245.38,-33.94C259.88,-31.15 275.13,-28.23 288.54,-25.65"/>
<polygon fill="black" stroke="black" points="289.24,-29.08 298.4,-23.76 287.92,-22.21 289.24,-29.08"/>
</g>
<!-- Database -->
<g id="node5" class="node">
<title>Database</title>
<ellipse fill="none" stroke="black" cx="451.82" cy="-45" rx="53.89" ry="18"/>
<text text-anchor="middle" x="451.82" y="-41.3" font-family="Times,serif" font-size="14.00">Database</text>
</g>
<!-- API1&#45;&gt;Database -->
<g id="edge4" class="edge">
<title>API1&#45;&gt;Database</title>
<path fill="none" stroke="black" d="M359.84,-65.4C370.94,-62.91 383.95,-59.99 396.6,-57.16"/>
<polygon fill="black" stroke="black" points="397.63,-60.51 406.62,-54.91 396.1,-53.68 397.63,-60.51"/>
</g>
<!-- API2&#45;&gt;Database -->
<g id="edge5" class="edge">
<title>API2&#45;&gt;Database</title>
<path fill="none" stroke="black" d="M359.84,-24.6C370.94,-27.09 383.95,-30.01 396.6,-32.84"/>
<polygon fill="black" stroke="black" points="396.1,-36.32 406.62,-35.09 397.63,-29.49 396.1,-36.32"/>
</g>
</g>
</svg>
