<?xml version="1.0" encoding="UTF-8" standalone="no"?>
<!DOCTYPE svg PUBLIC "-//W3C//DTD SVG 1.1//EN"
 "http://www.w3.org/Graphics/SVG/1.1/DTD/svg11.dtd">
<!-- Generated by graphviz version 2.43.0 (0)
 -->
<!-- Title: infra Pages: 1 -->
<svg width="693pt" height="152pt"
 viewBox="0.00 0.00 692.75 152.00" xmlns="http://www.w3.org/2000/svg" xmlns:xlink="http://www.w3.org/1999/xlink">
<g id="graph0" class="graph" transform="scale(1 1) rotate(0) translate(4 148)">
<title>infra</title>
<polygon fill="white" stroke="transparent" points="-4,4 -4,-148 688.75,-148 688.75,4 -4,4"/>
<!-- Client -->
<g id="node1" class="node">
<title>Client</title>
<ellipse fill="none" stroke="black" cx="38.35" cy="-72" rx="38.19" ry="18"/>
<text text-anchor="middle" x="38.35" y="-68.3" font-family="Times,serif" font-size="14.00">Client</text>
</g>
<!-- LoadBalancer -->
<g id="node2" class="node">
<title>LoadBalancer</title>
<ellipse fill="none" stroke="black" cx="186.79" cy="-72" rx="74.19" ry="18"/>
<text text-anchor="middle" x="186.79" y="-68.3" font-family="Times,serif" font-size="14.00">LoadBalancer</text>
</g>
<!-- Client&#45;&gt;LoadBalancer -->
<g id="edge1" class="edge">
<title>Client&#45;&gt;LoadBalancer</title>
<path fill="none" stroke="black" d="M77.06,-72C85,-72 93.68,-72 102.56,-72"/>
<polygon fill="black" stroke="black" points="102.64,-75.5 112.64,-72 102.64,-68.5 102.64,-75.5"/>
</g>
<!-- API1 -->
<g id="node3" class="node">
<title>API1</title>
<ellipse fill="none" stroke="black" cx="329.38" cy="-99" rx="32.49" ry="18"/>
<text text-anchor="middle" x="329.38" y="-95.3" font-family="Times,serif" font-size="14.00">API1</text>
</g>
<!-- LoadBalancer&#45;&gt;API1 -->
<g id="edge2" class="edge">
<title>LoadBalancer&#45;&gt;API1</title>
<path fill="none" stroke="black" d="M245.38,-83.06C259.88,-85.85 275.13,-88.77 288.54,-91.35"/>
<polygon fill="black" stroke="black" points="287.92,-94.79 298.4,-93.24 289.24,-87.92 287.92,-94.79"/>
</g>
<!-- API2 -->
<g id="node4" class="node">
<title>API2</title>
<ellipse fill="none" stroke="black" cx="329.38" cy="-45" rx="32.49" ry="18"/>
<text text-anchor="middle" x="329.38" y="-41.3" font-family="Times,serif" font-size="14.00">API2</text>
</g>
<!-- LoadBalancer&#45;&gt;API2 -->
<g id="edge3" class="edge">
<title>LoadBalancer&#45;&gt;API2</title>
<path fill="none" stroke="black" d="M245.38,-60.94C259.88,-58.15 275.13,-55.23 288.54,-52.65"/>
<polygon fill="black" stroke="black" points="289.24,-56.08 298.4,-50.76 287.92,-49.21 289.24,-56.08"/>
</g>
<!-- Database -->
<g id="node5" class="node">
<title>Database</title>
<ellipse fill="none" stroke="black" cx="479.12" cy="-126" rx="53.89" ry="18"/>
<text text-anchor="middle" x="479.12" y="-122.3" font-family="Times,serif" font-size="14.00">Database</text>
</g>
<!-- API1&#45;&gt;Database -->
<g id="edge4" class="edge">
<title>API1&#45;&gt;Database</title>
<path fill="none" stroke="black" d="M360.63,-104.53C378.12,-107.72 400.68,-111.85 421.35,-115.63"/>
<polygon fill="black" stroke="black" points="420.85,-119.09 431.32,-117.45 422.11,-112.21 420.85,-119.09"/>
</g>
<!-- Cache -->
<g id="node6" class="node">
<title>Cache</title>
<ellipse fill="none" stroke="black" cx="479.12" cy="-72" rx="38.99" ry="18"/>
<text text-anchor="middle" x="479.12" y="-68.3" font-family="Times,serif" font-size="14.00">Cache</text>
</g>
<!-- API1&#45;&gt;Cache -->
<g id="edge6" class="edge">
<title>API1&#45;&gt;Cache</title>
<path fill="none" stroke="black" d="M360.63,-93.47C381.37,-89.68 409.25,-84.59 432.65,-80.31"/>
<polygon fill="black" stroke="black" points="433.5,-83.71 442.7,-78.47 432.24,-76.83 433.5,-83.71"/>
</g>
<!-- MessageQueue -->
<g id="node8" class="node">
<title>MessageQueue</title>
<ellipse fill="none" stroke="black" cx="479.12" cy="-18" rx="81.49" ry="18"/>
<text text-anchor="middle" x="479.12" y="-14.3" font-family="Times,serif" font-size="14.00">MessageQueue</text>
</g>
<!-- API1&#45;&gt;MessageQueue -->
<g id="edge9" class="edge">
<title>API1&#45;&gt;MessageQueue</title>
<path fill="none" stroke="black" d="M347.59,-84.08C363.9,-70.16 387.4,-50.72 397.87,-45 404.17,-41.56 410.99,-38.45 417.89,-35.67"/>
<polygon fill="black" stroke="black" points="419.22,-38.91 427.32,-32.09 416.73,-32.37 419.22,-38.91"/>
</g>
<!-- API2&#45;&gt;Database -->
<g id="edge5" class="edge">
<title>API2&#45;&gt;Database</title>
<path fill="none" stroke="black" d="M347.59,-59.92C363.9,-73.84 387.4,-93.28 397.87,-99 406.78,-103.86 416.71,-108.06 426.47,-111.61"/>
<polygon fill="black" stroke="black" points="425.53,-114.99 436.13,-114.93 427.81,-108.37 425.53,-114.99"/>
</g>
<!-- API2&#45;&gt;Cache -->
<g id="edge7" class="edge">
<title>API2&#45;&gt;Cache</title>
<path fill="none" stroke="black" d="M360.63,-50.53C381.37,-54.32 409.25,-59.41 432.65,-63.69"/>
<polygon fill="black" stroke="black" points="432.24,-67.17 442.7,-65.53 433.5,-60.29 432.24,-67.17"/>
</g>
<!-- API2&#45;&gt;MessageQueue -->
<g id="edge10" class="edge">
<title>API2&#45;&gt;MessageQueue</title>
<path fill="none" stroke="black" d="M360.63,-39.47C373.84,-37.06 389.96,-34.11 405.96,-31.19"/>
<polygon fill="black" stroke="black" points="406.68,-34.61 415.89,-29.37 405.42,-27.73 406.68,-34.61"/>
</g>
<!-- Redis -->
<g id="node7" class="node">
<title>Redis</title>
<ellipse fill="none" stroke="black" cx="640.56" cy="-72" rx="36.29" ry="18"/>
<text text-anchor="middle" x="640.56" y="-68.3" font-family="Times,serif" font-size="14.00">Redis</text>
</g>
<!-- Cache&#45;&gt;Redis -->
<g id="edge8" class="edge">
<title>Cache&#45;&gt;Redis</title>
<path fill="none" stroke="black" d="M518.31,-72C541.02,-72 569.97,-72 593.88,-72"/>
<polygon fill="black" stroke="black" points="594.13,-75.5 604.13,-72 594.13,-68.5 594.13,-75.5"/>
</g>
<!-- Worker -->
<g id="node9" class="node">
<title>Worker</title>
<ellipse fill="none" stroke="black" cx="640.56" cy="-18" rx="44.39" ry="18"/>
<text text-anchor="middle" x="640.56" y="-14.3" font-family="Times,serif" font-size="14.00">Worker</text>
</g>
<!-- MessageQueue&#45;&gt;Worker -->
<g id="edge11" class="edge">
<title>MessageQueue&#45;&gt;Worker</title>
<path fill="none" stroke="black" d="M560.77,-18C569.35,-18 577.92,-18 586.07,-18"/>
<polygon fill="black" stroke="black" points="586.15,-21.5 596.15,-18 586.15,-14.5 586.15,-21.5"/>
</g>
</g>
</svg>
